<?xml version="1.0" standalone="no"?>
<!DOCTYPE svg PUBLIC "-//W3C//DTD SVG 20010904//EN"
 "http://www.w3.org/TR/2001/REC-SVG-20010904/DTD/svg10.dtd">
<svg version="1.0" xmlns="http://www.w3.org/2000/svg"
 width="620.000000pt" height="620.000000pt" viewBox="0 0 620.000000 620.000000"
 preserveAspectRatio="xMidYMid meet">
<metadata>
Created by potrace 1.11, written by Peter Selinger 2001-2013
</metadata>
<g transform="translate(0.000000,620.000000) scale(0.100000,-0.100000)"
fill="#000000" stroke="none">
<path d="M0 3100 l0 -3000 3100 0 3100 0 0 3000 0 3000 -3100 0 -3100 0 0
-3000z m3405 1231 c3 -6 6 -82 6 -171 0 -89 5 -175 10 -192 7 -25 6 -29 -4
-19 -8 8 -13 67 -15 196 -2 102 -7 185 -11 185 -3 0 -18 -7 -31 -16 l-25 -16
24 21 c26 23 37 26 46 12z m-140 -81 c-3 -5 -16 -15 -28 -21 -21 -10 -21 -9 2
10 25 23 36 27 26 11z m-65 -50 c-33 -20 -129 -99 -242 -200 -40 -35 -64 -54
-53 -40 11 13 31 33 44 45 13 11 49 43 80 70 110 95 174 146 180 140 3 -3 -1
-10 -9 -15z m283 -319 c20 -27 37 -55 37 -63 0 -8 7 -23 15 -34 8 -10 14 -23
15 -29 0 -5 -9 4 -20 20 -10 17 -19 34 -19 39 1 5 -3 12 -8 15 -15 10 -75 101
-66 101 4 -1 25 -23 46 -49z m-736 -99 c-36 -36 -144 -168 -201 -247 -16 -22
-31 -42 -33 -44 -2 -2 -5 -2 -8 1 -3 3 0 12 7 19 7 8 50 61 95 119 88 112 165
198 173 193 2 -2 -12 -21 -33 -41z m863 -104 c0 -6 -6 -5 -15 2 -8 7 -15 14
-15 16 0 2 7 1 15 -2 8 -4 15 -11 15 -16z m98 -154 c-6 -5 -58 68 -58 81 0 5
14 -10 31 -33 17 -24 29 -45 27 -48z m-452 -43 c-3 -5 -14 -7 -24 -5 -10 3
-44 -15 -82 -42 -36 -26 -58 -39 -50 -30 25 31 113 86 138 86 13 0 21 -4 18
-9z m133 5 c-8 -8 -119 -12 -119 -4 0 4 28 8 62 8 34 0 59 -2 57 -4z m54 -3
c-7 -2 -21 -2 -30 0 -10 3 -4 5 12 5 17 0 24 -2 18 -5z m318 -40 c13 -16 12
-17 -3 -4 -17 13 -22 21 -14 21 2 0 10 -8 17 -17z m-271 -50 c0 -9 -19 -13
-65 -13 -54 0 -66 -3 -75 -20 -14 -27 -27 -25 -80 10 l-44 29 -26 -24 c-50
-48 -65 -113 -64 -285 0 -117 -2 -138 -7 -85 -20 198 -1 307 66 378 30 31 38
33 55 12 7 -8 17 -15 23 -15 6 0 19 -8 30 -17 18 -17 20 -17 37 5 15 18 28 22
80 22 51 0 61 3 56 15 -15 38 -16 48 -2 25 8 -14 15 -31 16 -37z m338 -48 c-3
-3 -13 7 -23 22 l-17 28 23 -22 c12 -12 20 -25 17 -28z m-778 2 c0 -2 -12 -14
-27 -28 l-28 -24 24 28 c23 25 31 32 31 24z m-663 -62 c-29 -49 -47 -68 -47
-47 1 9 68 102 75 102 2 0 -10 -25 -28 -55z m1490 -4 c47 -71 76 -121 70 -121
-2 0 -26 33 -53 73 -26 39 -52 78 -57 85 -5 6 -6 12 -1 12 5 0 24 -22 41 -49z
m-893 -16 c-9 -14 -18 -25 -21 -25 -5 0 5 18 20 38 17 22 18 13 1 -13z m-61
-86 c-16 -28 -38 -71 -51 -96 -27 -52 -41 -54 -16 -2 21 42 86 149 91 149 2 0
-9 -23 -24 -51z m-585 16 c-6 -14 -13 -24 -14 -22 -6 6 9 47 17 47 5 0 3 -11
-3 -25z m1642 -72 c21 -43 21 -43 17 -43 -3 0 -14 16 -26 35 -11 19 -17 35
-12 35 4 0 14 -12 21 -27z m-1689 -20 c-45 -83 -157 -388 -181 -490 -7 -29
-16 -53 -22 -53 -11 0 -12 -5 49 185 25 77 55 163 68 190 12 28 28 66 35 85
15 40 59 120 67 120 2 0 -5 -17 -16 -37z m1797 -136 c19 -26 32 -52 30 -58 -6
-17 -251 -259 -257 -253 -3 3 52 61 121 130 l126 125 -49 73 c-78 117 -54 104
29 -17z m-1245 51 c-9 -12 -29 -76 -37 -118 -2 -8 -8 -27 -14 -41 -6 -15 -15
-69 -21 -120 l-10 -94 4 91 c2 50 6 97 9 105 3 8 16 53 31 102 14 48 31 87 37
87 7 0 7 -4 1 -12z m284 -123 c-3 -20 -18 -60 -33 -91 -15 -30 -25 -57 -22
-59 2 -2 40 7 83 20 44 14 103 28 130 32 64 9 239 10 287 1 79 -14 175 -53
241 -96 63 -42 32 -37 -40 6 -141 83 -309 107 -508 70 -60 -11 -117 -27 -126
-34 -17 -16 -75 -19 -83 -5 -3 5 5 30 19 55 14 26 30 67 36 91 14 54 24 60 16
10z m-334 -315 c7 -9 2 -5 -10 8 -13 13 -23 31 -22 40 0 11 4 9 10 -8 6 -13
15 -32 22 -40z m-706 -52 c-11 -47 -15 -64 -22 -103 -5 -22 -9 -44 -11 -50 -5
-22 -26 -153 -30 -195 -3 -25 -7 -54 -9 -65 -2 -11 -4 -39 -4 -62 -1 -24 -5
-43 -9 -43 -9 0 -7 66 3 130 3 19 10 64 15 100 5 36 12 83 16 105 3 22 8 49 9
60 2 11 4 21 4 23 1 1 1 3 1 5 0 1 6 24 14 51 8 27 13 53 10 58 -3 4 0 8 7 8
7 0 9 -9 6 -22z m1190 -174 c-3 -3 -12 -4 -19 -1 -8 3 -5 6 6 6 11 1 17 -2 13
-5z m50 -10 c-3 -3 -12 -4 -19 -1 -8 3 -5 6 6 6 11 1 17 -2 13 -5z m68 -4 c25
-11 -1 -11 -35 0 -20 6 -21 8 -5 8 11 0 29 -3 40 -8z m52 -6 c-3 -3 -12 -4
-19 -1 -8 3 -5 6 6 6 11 1 17 -2 13 -5z m60 -19 c1 -14 0 -15 -3 -3 -3 9 -15
19 -27 22 -18 4 -18 4 3 3 17 -1 25 -8 27 -22z m21 -56 c-3 -8 -7 -3 -11 10
-4 17 -3 21 5 13 5 -5 8 -16 6 -23z m25 -69 c3 -11 1 -18 -4 -14 -5 3 -9 12
-9 20 0 20 7 17 13 -6z m24 -82 c-3 -8 -6 -5 -6 6 -1 11 2 17 5 13 3 -3 4 -12
1 -19z m-1567 -147 c0 -36 3 -40 28 -44 25 -4 25 -4 -5 -6 -18 0 -33 2 -34 7
-5 39 -3 82 3 82 4 0 8 -18 8 -39z m1624 -44 c-8 -5 -27 -6 -42 -4 -25 4 -24
4 6 6 23 1 32 6 32 19 0 14 2 15 10 2 6 -10 5 -17 -6 -23z m-1537 -3 c-3 -3
-12 -4 -19 -1 -8 3 -5 6 6 6 11 1 17 -2 13 -5z m198 -4 c-5 -8 -176 -3 -184 6
-3 3 38 4 92 3 53 -1 95 -5 92 -9z m382 4 c-6 -7 -359 -5 -366 1 -2 3 80 5
184 5 104 0 186 -3 182 -6z m99 -2 c-5 -9 -74 -7 -83 2 -4 3 15 6 41 6 26 0
45 -3 42 -8z m141 2 c-8 -9 -127 -10 -127 -1 0 4 30 7 67 7 36 0 64 -3 60 -6z
m98 -3 c-9 -8 -85 -8 -85 1 0 4 20 7 45 6 25 0 43 -3 40 -7z m55 5 c0 -2 -9
-6 -20 -9 -11 -3 -20 -1 -20 4 0 5 9 9 20 9 11 0 20 -2 20 -4z m320 -5 c0 -8
-298 -6 -307 2 -3 3 65 6 151 5 86 0 156 -3 156 -7z m93 2 c-13 -2 -33 -2 -45
0 -13 2 -3 4 22 4 25 0 35 -2 23 -4z m54 1 c-3 -3 -12 -4 -19 -1 -8 3 -5 6 6
6 11 1 17 -2 13 -5z m1943 -19 c0 -8 -4 -15 -10 -15 -5 0 -7 7 -4 15 4 8 8 15
10 15 2 0 4 -7 4 -15z"/>
</g>
</svg>
