<?xml version="1.0" standalone="no"?>
<!DOCTYPE svg PUBLIC "-//W3C//DTD SVG 20010904//EN"
 "http://www.w3.org/TR/2001/REC-SVG-20010904/DTD/svg10.dtd">
<svg version="1.0" xmlns="http://www.w3.org/2000/svg"
 width="274.000000pt" height="274.000000pt" viewBox="0 0 274.000000 274.000000"
 preserveAspectRatio="xMidYMid meet">
<metadata>
Created by potrace 1.11, written by Peter Selinger 2001-2013
</metadata>
<g transform="translate(0.000000,274.000000) scale(0.100000,-0.100000)"
fill="#000000" stroke="none">
<path d="M1575 2649 c-22 -12 -42 -24 -45 -28 -3 -4 -18 -15 -35 -25 -16 -11
-34 -25 -38 -32 -4 -7 -23 -21 -42 -30 -19 -9 -35 -20 -35 -25 0 -5 -4 -9 -9
-9 -10 0 -59 -40 -141 -117 -31 -29 -60 -50 -63 -46 -4 3 -7 -1 -7 -11 0 -9
-3 -16 -7 -14 -5 2 -27 -16 -49 -39 -23 -24 -40 -43 -38 -43 2 0 -14 -16 -36
-36 -22 -20 -38 -39 -36 -42 3 -2 -13 -20 -35 -38 -23 -19 -38 -34 -34 -34 4
0 -7 -16 -24 -35 -17 -20 -31 -40 -31 -46 0 -6 -4 -8 -9 -4 -5 3 -12 -4 -16
-15 -3 -11 -11 -20 -16 -20 -5 0 -8 -6 -6 -12 1 -7 -4 -12 -10 -11 -12 3 -17
-9 -14 -29 0 -5 -7 -8 -16 -8 -9 0 -13 -3 -10 -7 4 -4 -5 -19 -20 -35 -15 -15
-23 -28 -18 -28 4 0 -2 -9 -15 -20 -13 -11 -20 -20 -17 -20 4 0 -11 -28 -33
-61 -22 -34 -37 -66 -33 -72 3 -5 2 -7 -3 -4 -10 6 -111 -171 -106 -185 1 -5
-3 -8 -8 -8 -6 0 -9 -3 -8 -7 0 -5 -8 -28 -20 -53 -11 -25 -22 -52 -24 -60 -2
-8 -9 -21 -16 -28 -7 -8 -10 -17 -7 -22 3 -5 1 -11 -5 -15 -5 -3 -10 -15 -10
-26 0 -10 -5 -19 -12 -19 -6 0 -8 -3 -5 -6 3 -4 2 -15 -4 -26 -6 -11 -13 -32
-15 -46 -3 -15 -9 -28 -14 -30 -5 -2 -6 -10 -3 -18 3 -8 1 -14 -4 -14 -5 0
-10 -12 -11 -27 -1 -15 -7 -30 -13 -33 -5 -4 -9 -11 -8 -16 3 -11 -10 -73 -21
-99 -8 -19 -38 -153 -45 -205 -8 -52 -25 -132 -30 -140 -3 -5 -1 -11 5 -15 6
-4 5 -16 -5 -35 -9 -18 -11 -31 -5 -35 6 -4 7 -13 1 -23 -5 -9 -9 -58 -10
-108 -2 -74 1 -93 14 -97 8 -4 15 -2 15 4 0 6 7 6 19 -1 12 -6 22 -6 25 -1 7
10 31 9 42 -2 4 -4 13 -2 20 4 8 7 14 7 19 -1 5 -8 11 -8 21 1 11 9 14 9 14
-1 0 -10 3 -10 14 -1 8 7 17 8 20 3 6 -10 36 -9 53 1 6 4 15 3 18 -3 5 -8 12
-7 22 2 17 13 20 13 40 -3 7 -7 14 -6 18 1 5 8 11 8 21 -1 11 -9 14 -9 14 1 0
10 3 10 14 1 10 -9 16 -9 21 -1 4 6 12 7 18 3 15 -10 38 -10 54 0 6 4 14 3 18
-3 4 -6 12 -7 18 -3 19 12 36 12 43 2 4 -6 11 -6 19 1 10 8 15 8 20 0 5 -8 11
-8 21 1 11 9 14 9 14 -1 0 -10 3 -10 14 -1 8 7 17 8 20 3 6 -10 36 -9 53 1 6
4 15 3 18 -3 4 -7 11 -8 18 -1 20 16 23 16 40 3 11 -9 17 -10 22 -2 5 8 11 8
21 -1 11 -9 14 -9 14 1 0 10 3 10 14 1 10 -9 16 -9 21 -1 4 6 12 7 18 3 15
-10 38 -10 54 0 6 4 14 3 18 -3 4 -6 12 -7 18 -3 19 12 36 12 43 2 4 -6 11 -6
19 1 10 8 15 8 20 0 5 -8 11 -8 21 1 11 9 14 9 14 -1 0 -10 3 -10 14 -1 8 7
17 8 20 3 6 -10 36 -9 53 1 6 4 15 3 18 -3 4 -7 11 -8 18 -1 20 16 23 16 40 3
11 -9 17 -10 22 -2 5 8 11 8 21 -1 11 -9 14 -9 14 1 0 10 3 10 14 1 10 -9 16
-9 21 -1 4 6 12 7 18 3 15 -10 38 -10 54 0 6 4 15 3 18 -3 5 -8 12 -7 22 2 17
13 20 13 41 -4 8 -7 12 -7 12 1 0 8 5 9 17 3 28 -16 44 7 27 40 -8 15 -16 35
-17 45 -5 21 -12 43 -34 95 -8 20 -12 41 -9 46 3 6 1 12 -5 14 -7 2 -13 13
-14 24 -1 10 -7 30 -12 44 -6 14 -16 42 -24 62 l-13 38 -63 0 c-35 0 -63 4
-63 8 0 9 -41 8 -57 -1 -6 -4 -13 -2 -15 3 -2 6 -19 12 -38 14 -50 5 -207 59
-230 79 -11 9 -20 15 -20 12 0 -9 -59 17 -79 37 -12 11 -25 18 -28 15 -3 -3
-14 3 -26 14 -11 10 -27 19 -34 19 -7 0 -13 8 -13 17 0 9 -3 13 -7 10 -4 -4
-19 5 -35 20 -27 26 -28 31 -28 120 0 51 4 93 9 93 4 0 6 11 4 24 -3 13 0 27
7 31 8 5 8 10 -1 21 -7 8 -7 14 -1 14 8 0 14 17 28 80 1 8 7 23 13 35 5 11 21
46 35 79 40 90 112 193 196 279 42 42 74 80 71 82 -2 3 3 5 12 5 10 0 17 5 17
11 0 6 6 9 13 6 7 -3 19 4 26 15 11 17 21 19 107 16 52 -2 94 1 94 6 0 5 6 3
14 -3 10 -8 16 -9 21 -1 10 16 21 5 44 -45 30 -63 28 -68 -24 -63 -25 2 -45 0
-45 -3 0 -4 -9 -5 -19 -2 -13 3 -23 -2 -30 -16 -13 -24 -42 -23 -71 2 -11 9
-20 14 -20 10 0 -4 -6 1 -13 11 -13 18 -15 17 -45 -12 -18 -17 -32 -38 -32
-47 0 -8 -3 -15 -8 -15 -4 0 -12 -16 -18 -35 -6 -19 -7 -35 -3 -35 5 0 4 -12
-2 -27 -12 -32 -10 -179 3 -205 6 -12 5 -18 -3 -18 -8 0 -9 -4 0 -13 6 -8 8
-17 5 -20 -7 -6 -24 -79 -26 -107 -1 -8 -4 -17 -7 -20 -16 -13 -42 -80 -36
-90 6 -9 9 -9 15 0 4 6 13 13 21 14 62 14 79 20 79 26 0 5 9 6 20 3 11 -3 20
-1 20 4 0 5 16 8 35 8 19 -1 35 1 35 5 0 4 59 7 130 8 72 0 130 -4 130 -9 0
-4 6 -6 14 -3 8 3 17 0 21 -6 5 -8 11 -8 21 1 8 7 14 7 14 1 0 -5 12 -13 28
-17 44 -11 122 -47 122 -56 0 -5 6 -9 14 -9 8 0 22 -7 30 -16 9 -8 16 -12 16
-7 0 4 5 1 10 -7 8 -12 34 10 135 110 69 69 121 126 115 128 -5 2 -10 13 -10
23 0 11 -4 17 -10 14 -9 -6 -14 8 -11 28 0 4 -6 7 -15 7 -8 0 -13 4 -10 9 3 4
-3 16 -14 26 -11 10 -20 23 -20 30 0 7 -9 22 -20 35 -11 12 -17 27 -14 31 3 5
-2 9 -10 9 -9 0 -16 7 -16 15 0 8 -5 15 -11 15 -5 0 -8 4 -5 9 3 5 -5 20 -19
32 -13 13 -25 32 -25 42 0 10 -4 16 -8 13 -8 -5 -68 94 -64 107 1 4 -5 7 -13
7 -8 0 -15 6 -15 13 0 6 -14 30 -30 51 -16 21 -27 43 -24 47 3 5 -2 9 -10 9
-9 0 -16 7 -16 15 0 8 -4 15 -10 15 -5 0 -10 9 -10 20 0 11 -5 20 -11 20 -5 0
-17 16 -25 35 -8 19 -18 35 -22 35 -4 0 -20 23 -37 51 -16 28 -40 62 -52 75
-13 12 -23 30 -23 38 0 8 -3 16 -8 18 -4 2 -27 33 -51 71 -24 37 -47 67 -51
67 -5 0 -7 8 -5 18 1 9 -1 25 -6 34 -5 9 -6 18 -1 20 4 2 5 72 2 156 l-5 152
-40 -21z"/>
</g>
</svg>
