<?xml version="1.0" standalone="no"?>
<!DOCTYPE svg PUBLIC "-//W3C//DTD SVG 20010904//EN"
 "http://www.w3.org/TR/2001/REC-SVG-20010904/DTD/svg10.dtd">
<svg version="1.0" xmlns="http://www.w3.org/2000/svg"
 width="620.000000pt" height="620.000000pt" viewBox="0 0 620.000000 620.000000"
 preserveAspectRatio="xMidYMid meet">
<metadata>
Created by potrace 1.11, written by Peter Selinger 2001-2013
</metadata>
<g transform="translate(0.000000,620.000000) scale(0.100000,-0.100000)"
fill="#000000" stroke="none">
<path d="M3361 4312 c-5 -9 -12 -16 -15 -15 -12 5 -66 -34 -58 -42 4 -4 0 -6
-8 -3 -8 2 -28 -9 -44 -26 -17 -17 -32 -30 -33 -28 -7 5 -26 1 -20 -4 4 -4
-13 -20 -38 -36 -24 -16 -74 -57 -110 -92 -37 -35 -69 -63 -71 -62 -11 3 -189
-184 -185 -195 2 -6 0 -10 -5 -7 -5 3 -17 -3 -26 -14 -10 -10 -15 -18 -11 -18
4 0 -3 -7 -15 -16 -12 -8 -22 -22 -22 -30 0 -8 -4 -12 -10 -9 -5 3 -10 -1 -10
-10 0 -9 -4 -13 -10 -10 -5 3 -10 0 -10 -7 0 -7 -20 -35 -43 -61 -24 -26 -42
-48 -41 -50 2 -2 -10 -18 -26 -37 -17 -19 -30 -41 -30 -48 0 -7 -4 -11 -9 -7
-5 3 -13 -5 -17 -17 -6 -22 -52 -97 -65 -108 -8 -7 -22 -44 -21 -52 1 -5 -3
-8 -8 -8 -6 0 -10 -4 -10 -10 0 -5 -8 -19 -17 -30 -10 -11 -18 -24 -19 -28 -1
-12 -103 -216 -114 -229 -6 -8 -7 -13 -1 -13 5 0 1 -17 -9 -37 -19 -39 -33
-75 -30 -82 1 -2 -2 -7 -7 -10 -5 -3 -20 -42 -33 -86 -13 -44 -28 -83 -33 -86
-5 -3 -7 -15 -6 -25 2 -11 0 -24 -3 -30 -4 -6 -9 -21 -12 -35 -2 -13 -9 -36
-15 -51 -6 -16 -8 -28 -5 -28 2 0 0 -9 -6 -19 -7 -14 -6 -21 3 -24 9 -4 9 -6
-1 -6 -7 -1 -10 -5 -7 -11 3 -6 0 -10 -7 -10 -9 0 -9 -3 2 -10 12 -7 12 -10 1
-10 -7 0 -11 -6 -7 -15 3 -8 1 -15 -5 -15 -6 0 -7 -4 -4 -10 3 -5 3 -15 -1
-22 -4 -6 -8 -23 -10 -37 -11 -115 -18 -161 -23 -161 -3 0 -8 -56 -10 -125
l-3 -125 23 4 c13 2 30 -1 37 -6 8 -7 12 -7 12 2 0 9 4 9 17 -1 9 -8 19 -12
22 -11 33 20 43 23 37 13 -5 -8 0 -8 18 -1 14 5 28 5 31 1 3 -5 20 -5 39 -1
19 4 39 4 45 0 10 -6 51 -6 59 0 7 7 29 5 40 -3 8 -6 12 -5 12 3 0 9 4 9 17
-1 9 -8 17 -14 17 -13 13 11 47 23 42 15 -5 -8 0 -8 18 -1 15 5 28 6 31 0 3
-6 15 -6 30 0 16 6 27 6 31 -1 4 -7 10 -6 19 1 10 8 15 8 20 0 5 -8 10 -8 20
0 10 8 15 8 20 0 5 -8 10 -8 20 0 9 7 15 8 19 1 4 -6 15 -7 30 -1 12 4 28 5
35 1 10 -7 51 -7 59 -1 7 7 29 5 40 -3 8 -6 17 -5 27 3 11 9 15 9 15 1 0 -9 5
-9 20 -1 13 7 20 7 20 1 0 -7 8 -7 23 -2 13 5 30 5 37 1 8 -5 22 -4 31 1 12 6
20 5 24 -1 5 -8 11 -8 20 0 10 8 15 8 20 0 5 -8 10 -8 20 0 10 8 15 8 20 0 5
-8 10 -8 20 0 10 8 15 8 20 0 5 -8 10 -8 20 0 10 8 15 8 20 0 5 -8 10 -8 20 0
10 8 15 8 20 0 5 -8 10 -8 20 0 10 8 15 8 20 0 5 -8 10 -8 20 0 9 7 15 8 19 1
4 -6 15 -7 30 -1 12 4 28 5 35 1 10 -7 51 -7 59 -1 7 7 29 5 40 -3 8 -6 12 -5
12 2 0 7 5 9 13 4 16 -10 39 -10 55 1 7 5 18 4 27 -4 12 -10 15 -9 15 6 0 15
-25 96 -47 154 -3 8 -7 21 -9 28 -1 8 -9 28 -18 46 -8 17 -17 43 -19 56 -3 14
-14 46 -25 72 -11 25 -19 48 -17 50 2 2 -11 2 -30 0 -45 -5 -209 17 -213 29
-2 5 -8 7 -12 4 -14 -9 -100 16 -100 29 0 6 -5 4 -10 -4 -6 -10 -10 -11 -10
-2 0 6 -3 11 -7 10 -5 -1 -18 3 -31 10 -12 7 -26 11 -31 8 -5 -3 -16 3 -26 14
-10 11 -26 20 -37 20 -10 0 -18 5 -18 10 0 6 -9 10 -20 10 -11 0 -20 5 -20 10
0 6 -7 10 -15 10 -8 0 -15 4 -15 8 0 5 -16 14 -35 22 -19 7 -32 17 -30 21 3 4
-6 10 -20 13 -14 4 -25 13 -25 20 0 8 -7 17 -16 20 -8 3 -13 9 -10 14 2 4 1
14 -4 21 -4 8 -4 27 0 42 5 17 5 31 -1 35 -5 3 -7 10 -3 15 3 5 8 33 10 62 3
28 10 57 16 64 7 9 7 13 0 13 -6 0 -4 12 5 30 8 17 12 37 9 45 -3 8 -1 15 4
15 6 0 10 9 10 20 0 11 4 20 8 20 5 0 9 6 9 13 0 18 52 129 70 150 9 9 13 17
9 17 -3 0 20 35 53 78 58 75 164 182 210 212 13 8 28 20 34 25 5 6 58 9 129 7
l119 -3 20 -45 c23 -55 24 -68 4 -60 -8 3 -15 1 -15 -4 0 -6 -9 -6 -23 -1 -14
5 -30 5 -40 0 -12 -7 -17 -6 -17 2 0 8 -4 8 -15 -1 -8 -7 -12 -17 -8 -23 3 -6
1 -7 -5 -3 -7 4 -12 2 -12 -4 0 -15 -36 -3 -80 27 -19 13 -36 19 -38 13 -2 -5
-10 -10 -18 -10 -7 0 -16 -11 -20 -25 -3 -14 -10 -25 -15 -25 -4 0 -11 -16
-15 -35 -3 -19 -9 -35 -13 -35 -3 0 -6 -16 -5 -35 1 -19 -2 -38 -7 -41 -5 -3
-7 -9 -5 -12 2 -4 5 -34 7 -67 1 -33 6 -66 12 -72 5 -7 6 -13 1 -13 -5 0 -10
-30 -11 -67 -1 -36 -5 -69 -10 -72 -4 -3 -9 -19 -11 -36 -2 -16 -7 -32 -10
-35 -4 -3 -15 -20 -25 -37 -20 -37 -8 -44 30 -18 15 11 24 12 29 4 5 -8 8 -8
13 0 4 6 19 12 34 13 15 1 27 6 27 11 0 5 11 7 25 5 14 -3 25 -2 25 2 0 8 0 9
148 16 86 5 122 3 122 -4 0 -8 8 -9 25 -2 13 5 26 6 29 1 3 -4 30 -14 61 -21
30 -7 55 -17 55 -22 0 -4 3 -7 8 -6 16 4 82 -27 82 -39 0 -7 3 -12 8 -11 4 1
21 -6 39 -15 29 -15 33 -15 47 -1 9 8 16 20 16 25 0 6 3 9 8 7 4 -2 23 13 43
34 21 21 35 38 32 38 -2 0 17 18 42 40 25 22 43 40 38 40 -4 0 4 8 19 18 l27
18 -20 34 c-12 19 -30 45 -42 58 -11 12 -16 22 -11 22 5 0 4 4 -1 8 -15 10
-85 118 -85 130 0 6 -4 12 -8 14 -16 6 -82 101 -76 109 3 5 1 9 -4 9 -10 0
-72 95 -72 111 0 5 -8 9 -17 9 -15 0 -16 2 -3 10 13 8 12 10 -3 10 -10 0 -16
4 -13 9 4 5 3 11 -2 13 -4 1 -23 28 -42 58 -19 30 -37 57 -40 60 -4 3 -15 21
-26 40 -10 19 -22 37 -25 40 -22 20 -78 104 -73 111 3 5 1 9 -4 9 -10 0 -132
186 -132 201 0 5 -6 9 -12 9 -10 0 -9 3 1 9 9 6 10 11 2 15 -7 4 -7 15 -1 31
6 15 6 27 0 30 -6 3 -5 16 1 32 5 14 6 31 1 37 -7 10 -9 31 -2 39 7 9 7 38 -1
43 -6 4 -6 11 1 19 7 9 8 15 1 19 -6 4 -7 15 -1 30 14 37 -20 62 -39 28z"/>
</g>
</svg>
